<svg height="512pt" viewBox="0 0 512 512" width="512pt" xmlns="http://www.w3.org/2000/svg"><path d="m91 180h60v302h-60zm0 0" fill="#ff4b00"/><path d="m361 180h60v302h-60zm0 0" fill="#cc1e0d"/><path d="m91 60h60v120h-60zm0 0" fill="#ff4b00"/><path d="m361 60h60v120h-60zm0 0" fill="#cc1e0d"/><path d="m481 150v60h-195l-30-30-30 30h-195v-60zm0 0" fill="#ff7816"/><path d="m256 150h225v60h-195l-30-30zm0 0" fill="#ff4b00"/><path d="m226 60h60v150h-60zm0 0" fill="#ff4b00"/><path d="m256 60h30v150h-30zm0 0" fill="#cc1e0d"/><path d="m512 0c-18 53.699219-69.101562 90-125.800781 90h-260.398438c-56.699219 0-107.800781-36.300781-125.800781-90 59.699219 19.800781 122.800781 30 185.800781 30h140.398438c63 0 126.101562-10.199219 185.800781-30zm0 0" fill="#68544f"/><path d="m386.199219 90h-130.199219v-60h70.199219c63 0 126.101562-10.199219 185.800781-30-18 53.699219-69.101562 90-125.800781 90zm0 0" fill="#53433f"/><path d="m61 452h120v60h-120zm0 0" fill="#68544f"/><path d="m331 452h120v60h-120zm0 0" fill="#53433f"/></svg>